#Comment line ignore any data following # character 
#Hierarchical Translation and Rotation (.htr) file 
[Header]	
#Header keywords are followed by a single value 
FileType HTR		#Single word string
DataType HTRS		#Translation followed by rotation and scale data
FileVersion 1		#integer
NumSegments 84		#integer
NumFrames 2		#integer
DataFrameRate 30		#integer, data frame rate in this file
EulerRotationOrder ZYX
CalibrationUnits mm
RotationUnits Degrees
GlobalAxisofGravity Y
BoneLengthAxis Y
ScaleFactor 1.00
[SegmentNames&Hierarchy]
#CHILD	PARENT
MASTER GLOBAL
root MASTER
chest root
L_mid_tent01 root
R_mid_tent01 root
spine01 root
Bip01_Neck chest
L_humerus chest
R_humerus chest
weapon_bone chest
Bip01_Head Bip01_Neck
eye_left_bone Bip01_Head
eye_right_bone Bip01_Head
L_forearm L_humerus
L_front_hand L_forearm
L_weapon_bone L_forearm
L_front_hand01_01 L_front_hand
L_front_hand02_01 L_front_hand
L_front_hand03_01 L_front_hand
L_front_hand01_02 L_front_hand01_01
L_front_hand02_02 L_front_hand02_01
L_front_hand03_02 L_front_hand03_01
R_forearm R_humerus
R_front_hand R_forearm
R_weapon_bone R_forearm
R_front_hand01_01 R_front_hand
R_front_hand02_01 R_front_hand
R_front_hand03_01 R_front_hand
R_front_hand01_02 R_front_hand01_01
R_front_hand02_02 R_front_hand02_01
R_front_hand03_02 R_front_hand03_01
null_rope01_connect L_mid_tent01
Rope1_Seg01 null_rope01_connect
Rope1_Seg02 Rope1_Seg01
Rope1_Seg03 Rope1_Seg02
Rope1_Seg04 Rope1_Seg03
Rope1_Seg05 Rope1_Seg04
Rope1_Seg06 Rope1_Seg05
Rope1_Seg07 Rope1_Seg06
Rope1_Seg09 Rope1_Seg07
L_mid_hand01 Rope1_Seg09
L_mid_hand02 Rope1_Seg09
L_mid_hand03 Rope1_Seg09
null_rope02_connect R_mid_tent01
Rope2_Seg01 null_rope02_connect
Rope2_Seg02 Rope2_Seg01
Rope2_Seg03 Rope2_Seg02
Rope2_Seg04 Rope2_Seg03
Rope2_Seg05 Rope2_Seg04
Rope2_Seg06 Rope2_Seg05
Rope2_Seg07 Rope2_Seg06
Rope2_Seg09 Rope2_Seg07
R_mid_hand01 Rope2_Seg09
R_mid_hand02 Rope2_Seg09
R_mid_hand03 Rope2_Seg09
spine02 spine01
spine03 spine02
pelvis spine03
null_rope03_connect pelvis
null_rope04_connect pelvis
Rope3_Seg01 null_rope03_connect
Rope3_Seg02 Rope3_Seg01
Rope3_Seg03 Rope3_Seg02
Rope3_Seg04 Rope3_Seg03
Rope3_Seg05 Rope3_Seg04
Rope3_Seg06 Rope3_Seg05
Rope3_Seg07 Rope3_Seg06
Rope3_Seg08 Rope3_Seg07
Rope3_Seg09 Rope3_Seg08
R_rear_hand01 Rope3_Seg09
R_rear_hand02 Rope3_Seg09
R_rear_hand03 Rope3_Seg09
Rope4_Seg01 null_rope04_connect
Rope4_Seg02 Rope4_Seg01
Rope4_Seg03 Rope4_Seg02
Rope4_Seg04 Rope4_Seg03
Rope4_Seg05 Rope4_Seg04
Rope4_Seg06 Rope4_Seg05
Rope4_Seg07 Rope4_Seg06
Rope4_Seg08 Rope4_Seg07
Rope4_Seg09 Rope4_Seg08
L_rear_hand01 Rope4_Seg09
L_rear_hand02 Rope4_Seg09
L_rear_hand03 Rope4_Seg09
[BasePosition]
#SegmentName Tx, Ty, Tz, Rx, Ry, Rz, BoneLength
MASTER 0.000000 0.000000 0.000000 -90.000000 0.000000 0.000000 10.000000 
root 0.000000 0.000000 0.000000 0.000000 0.000000 0.000000 10.000000 
chest 0.000000 0.000000 0.000000 0.000000 0.000000 0.000000 10.000000 
L_mid_tent01 0.000000 0.000000 0.000000 0.000000 0.000000 0.000000 10.000000 
R_mid_tent01 0.000000 0.000000 0.000000 0.000000 0.000000 0.000000 10.000000 
spine01 0.000000 0.000000 0.000000 0.000000 0.000000 0.000000 10.000000 
Bip01_Neck 0.000000 0.000000 0.000000 0.000000 0.000000 0.000000 10.000000 
L_humerus 0.000000 0.000000 0.000000 0.000000 0.000000 0.000000 10.000000 
R_humerus 0.000000 0.000000 0.000000 0.000000 0.000000 0.000000 10.000000 
weapon_bone 0.000000 0.000000 0.000000 0.000000 0.000000 0.000000 10.000000 
Bip01_Head 0.000000 0.000000 0.000000 0.000000 0.000000 0.000000 10.000000 
eye_left_bone 0.000000 0.000000 0.000000 0.000000 0.000000 0.000000 10.000000 
eye_right_bone 0.000000 0.000000 0.000000 0.000000 0.000000 0.000000 10.000000 
L_forearm 0.000000 0.000000 0.000000 0.000000 0.000000 0.000000 10.000000 
L_front_hand 0.000000 0.000000 0.000000 0.000000 0.000000 0.000000 10.000000 
L_weapon_bone 0.000000 0.000000 0.000000 0.000000 0.000000 0.000000 10.000000 
L_front_hand01_01 0.000000 0.000000 0.000000 0.000000 0.000000 0.000000 10.000000 
L_front_hand02_01 0.000000 0.000000 0.000000 0.000000 0.000000 0.000000 10.000000 
L_front_hand03_01 0.000000 0.000000 0.000000 0.000000 0.000000 0.000000 10.000000 
L_front_hand01_02 0.000000 0.000000 0.000000 0.000000 0.000000 0.000000 10.000000 
L_front_hand02_02 0.000000 0.000000 0.000000 0.000000 0.000000 0.000000 10.000000 
L_front_hand03_02 0.000000 0.000000 0.000000 0.000000 0.000000 0.000000 10.000000 
R_forearm 0.000000 0.000000 0.000000 0.000000 0.000000 0.000000 10.000000 
R_front_hand 0.000000 0.000000 0.000000 0.000000 0.000000 0.000000 10.000000 
R_weapon_bone 0.000000 0.000000 0.000000 0.000000 0.000000 0.000000 10.000000 
R_front_hand01_01 0.000000 0.000000 0.000000 0.000000 0.000000 0.000000 10.000000 
R_front_hand02_01 0.000000 0.000000 0.000000 0.000000 0.000000 0.000000 10.000000 
R_front_hand03_01 0.000000 0.000000 0.000000 0.000000 0.000000 0.000000 10.000000 
R_front_hand01_02 0.000000 0.000000 0.000000 0.000000 0.000000 0.000000 10.000000 
R_front_hand02_02 0.000000 0.000000 0.000000 0.000000 0.000000 0.000000 10.000000 
R_front_hand03_02 0.000000 0.000000 0.000000 0.000000 0.000000 0.000000 10.000000 
null_rope01_connect 0.000000 0.000000 0.000000 0.000000 0.000000 0.000000 10.000000 
Rope1_Seg01 0.000000 0.000000 0.000000 0.000000 0.000000 0.000000 10.000000 
Rope1_Seg02 0.000000 0.000000 0.000000 0.000000 0.000000 0.000000 10.000000 
Rope1_Seg03 0.000000 0.000000 0.000000 0.000000 0.000000 0.000000 10.000000 
Rope1_Seg04 0.000000 0.000000 0.000000 0.000000 0.000000 0.000000 10.000000 
Rope1_Seg05 0.000000 0.000000 0.000000 0.000000 0.000000 0.000000 10.000000 
Rope1_Seg06 0.000000 0.000000 0.000000 0.000000 0.000000 0.000000 10.000000 
Rope1_Seg07 0.000000 0.000000 0.000000 0.000000 0.000000 0.000000 10.000000 
Rope1_Seg09 0.000000 0.000000 0.000000 0.000000 0.000000 0.000000 10.000000 
L_mid_hand01 0.000000 0.000000 0.000000 0.000000 0.000000 0.000000 10.000000 
L_mid_hand02 0.000000 0.000000 0.000000 0.000000 0.000000 0.000000 10.000000 
L_mid_hand03 0.000000 0.000000 0.000000 0.000000 0.000000 0.000000 10.000000 
null_rope02_connect 0.000000 0.000000 0.000000 0.000000 0.000000 0.000000 10.000000 
Rope2_Seg01 0.000000 0.000000 0.000000 0.000000 0.000000 0.000000 10.000000 
Rope2_Seg02 0.000000 0.000000 0.000000 0.000000 0.000000 0.000000 10.000000 
Rope2_Seg03 0.000000 0.000000 0.000000 0.000000 0.000000 0.000000 10.000000 
Rope2_Seg04 0.000000 0.000000 0.000000 0.000000 0.000000 0.000000 10.000000 
Rope2_Seg05 0.000000 0.000000 0.000000 0.000000 0.000000 0.000000 10.000000 
Rope2_Seg06 0.000000 0.000000 0.000000 0.000000 0.000000 0.000000 10.000000 
Rope2_Seg07 0.000000 0.000000 0.000000 0.000000 0.000000 0.000000 10.000000 
Rope2_Seg09 0.000000 0.000000 0.000000 0.000000 0.000000 0.000000 10.000000 
R_mid_hand01 0.000000 0.000000 0.000000 0.000000 0.000000 0.000000 10.000000 
R_mid_hand02 0.000000 0.000000 0.000000 0.000000 0.000000 0.000000 10.000000 
R_mid_hand03 0.000000 0.000000 0.000000 0.000000 0.000000 0.000000 10.000000 
spine02 0.000000 0.000000 0.000000 0.000000 0.000000 0.000000 10.000000 
spine03 0.000000 0.000000 0.000000 0.000000 0.000000 0.000000 10.000000 
pelvis 0.000000 0.000000 0.000000 0.000000 0.000000 0.000000 10.000000 
null_rope03_connect 0.000000 0.000000 0.000000 0.000000 0.000000 0.000000 10.000000 
null_rope04_connect 0.000000 0.000000 0.000000 0.000000 0.000000 0.000000 10.000000 
Rope3_Seg01 0.000000 0.000000 0.000000 0.000000 0.000000 0.000000 10.000000 
Rope3_Seg02 0.000000 0.000000 0.000000 0.000000 0.000000 0.000000 10.000000 
Rope3_Seg03 0.000000 0.000000 0.000000 0.000000 0.000000 0.000000 10.000000 
Rope3_Seg04 0.000000 0.000000 0.000000 0.000000 0.000000 0.000000 10.000000 
Rope3_Seg05 0.000000 0.000000 0.000000 0.000000 0.000000 0.000000 10.000000 
Rope3_Seg06 0.000000 0.000000 0.000000 0.000000 0.000000 0.000000 10.000000 
Rope3_Seg07 0.000000 0.000000 0.000000 0.000000 0.000000 0.000000 10.000000 
Rope3_Seg08 0.000000 0.000000 0.000000 0.000000 0.000000 0.000000 10.000000 
Rope3_Seg09 0.000000 0.000000 0.000000 0.000000 0.000000 0.000000 10.000000 
R_rear_hand01 0.000000 0.000000 0.000000 0.000000 0.000000 0.000000 10.000000 
R_rear_hand02 0.000000 0.000000 0.000000 0.000000 0.000000 0.000000 10.000000 
R_rear_hand03 0.000000 0.000000 0.000000 0.000000 0.000000 0.000000 10.000000 
Rope4_Seg01 0.000000 0.000000 0.000000 0.000000 0.000000 0.000000 10.000000 
Rope4_Seg02 0.000000 0.000000 0.000000 0.000000 0.000000 0.000000 10.000000 
Rope4_Seg03 0.000000 0.000000 0.000000 0.000000 0.000000 0.000000 10.000000 
Rope4_Seg04 0.000000 0.000000 0.000000 0.000000 0.000000 0.000000 10.000000 
Rope4_Seg05 0.000000 0.000000 0.000000 0.000000 0.000000 0.000000 10.000000 
Rope4_Seg06 0.000000 0.000000 0.000000 0.000000 0.000000 0.000000 10.000000 
Rope4_Seg07 0.000000 0.000000 0.000000 0.000000 0.000000 0.000000 10.000000 
Rope4_Seg08 0.000000 0.000000 0.000000 0.000000 0.000000 0.000000 10.000000 
Rope4_Seg09 0.000000 0.000000 0.000000 0.000000 0.000000 0.000000 10.000000 
L_rear_hand01 0.000000 0.000000 0.000000 0.000000 0.000000 0.000000 10.000000 
L_rear_hand02 0.000000 0.000000 0.000000 0.000000 0.000000 0.000000 10.000000 
L_rear_hand03 0.000000 0.000000 0.000000 0.000000 0.000000 0.000000 10.000000 
#Beginning of Data. Separated by tabs
#Fr	Tx	Ty	Tz	Rx	Ry	Rz	SF
[MASTER]
14 0.000000 0.000000 0.000000 0.001660 0.001660 0.001660 0.000000
15 0.000000 0.000000 0.000000 0.001660 0.001660 0.001660 0.000000
[root]
14 -32.393005 -11.432005 966.553650 -89.168732 -36.672894 -88.964523 967.163879
15 -37.785625 -7.687588 999.126404 -88.840866 -35.035030 -88.557167 999.870178
[chest]
14 -84.512650 -34.090519 0.000000 1.578691 -1.557594 -135.703049 91.129311
15 -84.512650 -34.090519 0.000000 1.426869 -1.407905 -137.993469 91.129311
[L_mid_tent01]
14 27.351456 22.147827 -250.248886 -11.540002 -1.605399 51.492386 252.711548
15 27.346739 22.150518 -250.218811 -10.583916 3.012800 53.485733 252.681488
[R_mid_tent01]
14 23.228794 24.509907 226.238495 -173.050003 -6.814045 54.111160 228.744751
15 23.228794 24.509907 226.238495 -174.340088 -12.245992 55.899326 228.744751
[spine01]
14 -0.361383 -0.195265 0.000000 0.001932 0.001332 20.828693 0.410763
15 -0.361383 -0.195265 0.000000 0.001930 0.001336 20.609228 0.410763
[Bip01_Neck]
14 165.484543 71.581718 0.000119 175.896118 1.177290 24.871183 180.302734
15 165.484543 71.581718 0.000119 175.896118 1.177290 24.871183 180.302734
[L_humerus]
14 -13.983130 -135.272980 -120.471481 -107.237602 -1.603648 -79.537315 181.680161
15 -13.983130 -135.272980 -120.471481 -134.034500 0.874040 -81.933937 181.680161
[R_humerus]
14 -13.983309 -135.273102 125.287651 109.474228 -3.740690 -74.230507 184.909012
15 -13.983309 -135.273102 125.287651 127.657288 -4.810111 -77.895256 184.909012
[weapon_bone]
14 235.964890 -300.705902 0.000000 0.000000 -89.951546 -128.212341 382.234833
15 235.964890 -300.705902 0.000000 0.000000 -89.951546 -128.212341 382.234833
[Bip01_Head]
14 102.819817 23.735544 5.410311 3.150732 3.423702 -20.839094 105.662491
15 102.819817 23.735554 5.410305 3.150732 3.423702 -20.839094 105.662491
[eye_left_bone]
14 -24.626970 125.451866 -64.772606 0.000000 -90.000000 -99.840431 143.318359
15 -24.626970 125.451866 -64.772606 0.000000 -90.000000 -99.840431 143.318359
[eye_right_bone]
14 -24.626970 125.451866 64.327362 0.000000 -89.960434 80.159386 143.117676
15 -24.626970 125.451866 64.327362 0.000000 -89.960434 80.159386 143.117676
[L_forearm]
14 322.776093 0.000000 -0.000119 0.000017 0.002347 -89.149834 322.776093
15 322.776093 0.000000 -0.000119 0.000017 0.002347 -89.149834 322.776093
[L_front_hand]
14 241.149185 -0.042021 -3.300071 -177.766785 0.396042 -91.533569 241.171753
15 241.149185 -0.042021 -3.300071 -177.782532 0.477703 -93.585236 241.171753
[L_weapon_bone]
14 154.893890 9.294069 0.000668 0.002088 0.001073 35.612316 155.172485
15 154.734436 10.443399 0.000458 0.002079 0.001090 34.637070 155.086456
[L_front_hand01_01]
14 86.095154 20.947098 -0.655860 0.405585 -0.442306 -4.620490 88.609184
15 86.095154 20.947098 -0.655860 0.405585 -0.442306 -4.620490 88.609184
[L_front_hand02_01]
14 86.935165 -11.437475 24.513514 116.959450 3.630817 1.495453 91.046425
15 86.935165 -11.437475 24.513514 116.959450 3.630817 1.495453 91.046425
[L_front_hand03_01]
14 86.637497 -14.123976 -20.424902 -118.420097 -4.656303 -0.152527 90.126129
15 86.637497 -14.123976 -20.424902 -118.420097 -4.656303 -0.152527 90.126129
[L_front_hand01_02]
14 71.020905 -0.000179 0.000030 0.000004 -0.000005 -8.379269 71.020905
15 71.020905 -0.000179 0.000030 0.000004 -0.000005 -8.379269 71.020905
[L_front_hand02_02]
14 71.020927 -0.000119 0.000060 -0.000005 -0.000004 -8.379259 71.020927
15 71.020927 -0.000119 0.000060 -0.000005 -0.000004 -8.379259 71.020927
[L_front_hand03_02]
14 71.020905 -0.000060 0.000060 0.000015 -0.000040 -8.379267 71.020905
15 71.020905 -0.000060 0.000060 0.000015 -0.000040 -8.379267 71.020905
[R_forearm]
14 322.776428 -0.000060 0.000030 0.213275 0.004854 -91.989960 322.776428
15 322.776428 -0.000060 0.000030 0.213283 0.004482 -91.790398 322.776428
[R_front_hand]
14 238.847015 -0.006795 2.210259 -1.702052 -0.302173 -88.773087 238.857239
15 238.847015 -0.006795 2.210259 -1.702382 -0.301768 -88.767441 238.857239
[R_weapon_bone]
14 155.664093 0.002503 -0.000030 0.003265 0.001699 -108.599930 155.664078
15 155.664093 0.002503 -0.000030 0.003251 0.001727 -109.559288 155.664078
[R_front_hand01_01]
14 87.624611 14.231146 22.918642 -116.960213 3.496675 -1.324139 91.683487
15 87.624611 14.231146 22.918642 -116.960205 3.496675 -1.324138 91.683487
[R_front_hand02_01]
14 89.356956 14.367283 -19.491137 118.419632 -4.257088 0.609827 92.579636
15 89.356956 14.367283 -19.491137 118.419647 -4.257089 0.609827 92.579636
[R_front_hand03_01]
14 87.286232 -22.307278 -0.143439 -0.387970 -0.231462 4.232001 90.091743
15 87.286232 -22.307278 -0.143439 -0.387970 -0.231462 4.232001 90.091743
[R_front_hand01_02]
14 71.020905 0.000060 0.000119 -0.000005 -0.000020 8.379271 71.020905
15 71.020905 0.000060 0.000119 -0.000005 -0.000020 8.379271 71.020905
[R_front_hand02_02]
14 71.020844 -0.000030 -0.000119 0.000000 -0.000021 8.379271 71.020836
15 71.020844 -0.000030 -0.000119 0.000000 -0.000021 8.379271 71.020836
[R_front_hand03_02]
14 71.020905 0.000000 0.000030 -0.000001 -0.000020 8.379275 71.020905
15 71.020905 0.000000 0.000030 -0.000001 -0.000020 8.379275 71.020905
[null_rope01_connect]
14 328.732483 0.000000 -0.000238 149.315155 -78.255005 -73.806831 328.732483
15 328.732483 0.000000 -0.000238 165.416870 -79.625473 -93.945358 328.732483
[Rope1_Seg01]
14 0.000048 -0.000062 0.000057 97.812439 -29.668051 -173.859344 0.000097
15 0.000046 -0.000061 0.000061 100.349449 -31.450720 -178.360550 0.000098
[Rope1_Seg02]
14 139.999863 -0.000179 0.000000 1.970506 -8.527555 -2.188949 139.999863
15 139.999863 -0.000179 0.000000 1.608673 -10.611902 -2.378270 139.999863
[Rope1_Seg03]
14 139.999924 0.000060 -0.000060 5.397264 -32.512115 -11.667927 139.999924
15 139.999924 0.000060 -0.000060 3.679470 -42.443653 -16.459747 139.999924
[Rope1_Seg04]
14 139.999924 -0.000060 -0.000119 5.440159 -59.372887 -37.549957 139.999924
15 139.999924 -0.000060 -0.000119 -10.267535 -50.130917 -21.723150 139.999924
[Rope1_Seg05]
14 139.999832 0.000119 -0.000060 2.984020 -15.738452 29.737091 139.999832
15 139.999832 0.000119 -0.000060 3.155670 -14.066683 25.100960 139.999832
[Rope1_Seg06]
14 139.999954 0.000119 -0.000060 53.344913 -6.815088 30.219629 139.999954
15 139.999954 0.000119 -0.000060 11.499011 -8.041759 15.856988 139.999954
[Rope1_Seg07]
14 139.999985 0.000060 0.000000 34.669888 5.124624 8.519022 139.999985
15 139.999985 0.000060 0.000000 12.027948 -3.135933 7.163699 139.999985
[Rope1_Seg09]
14 121.602913 0.000119 -0.000089 -89.793175 -1.359789 0.847147 121.602913
15 121.602913 0.000119 -0.000089 -89.793175 -1.359789 0.847147 121.602913
[L_mid_hand01]
14 103.859421 1.038730 8.195221 104.352043 0.341479 -0.444583 104.187431
15 103.859421 1.038730 8.195221 104.352036 0.341479 -0.444584 104.187431
[L_mid_hand02]
14 105.572853 -4.139662 -10.864139 -135.608444 3.905687 -3.381056 106.211075
15 105.572853 -4.139662 -10.864139 -135.608444 3.905687 -3.381056 106.211075
[L_mid_hand03]
14 104.641464 17.579376 -3.913581 -18.761515 -0.324361 2.942912 106.179977
15 104.641464 17.579376 -3.913581 -18.761518 -0.324361 2.942912 106.179977
[null_rope02_connect]
14 328.732849 0.000179 -0.000119 -147.733658 78.942581 -39.784740 328.732849
15 328.732849 0.000179 -0.000119 -132.844620 74.358757 -21.260181 328.732849
[Rope2_Seg01]
14 0.000138 0.000114 -0.000057 -16.739096 -32.134274 -4.615615 0.000188
15 0.000137 0.000114 -0.000061 -18.219301 -33.631901 -2.300497 0.000189
[Rope2_Seg02]
14 139.999741 -0.000060 -0.000119 -3.695711 1.726821 7.652149 139.999756
15 139.999741 -0.000060 -0.000119 -4.101612 2.067114 9.799618 139.999756
[Rope2_Seg03]
14 140.000107 0.000030 0.000000 -9.855129 7.291796 29.775991 140.000107
15 140.000107 0.000030 0.000000 -8.929021 11.276660 44.024986 140.000107
[Rope2_Seg04]
14 139.999802 0.000000 -0.000060 0.220002 7.427536 71.854683 139.999802
15 139.999802 0.000000 -0.000060 1.514796 -3.153212 56.484112 139.999802
[Rope2_Seg05]
14 139.999985 -0.000060 0.000119 -9.754272 -38.681419 -4.987856 139.999985
15 139.999985 -0.000060 0.000119 -10.412750 -33.403790 -0.100529 139.999985
[Rope2_Seg06]
14 139.999893 -0.000030 -0.000119 -25.050611 -24.185215 -12.790466 139.999893
15 139.999893 -0.000030 -0.000119 -9.981789 -14.049975 -1.101110 139.999893
[Rope2_Seg07]
14 139.999893 0.000060 -0.000060 -10.504267 -5.712615 -5.347984 139.999893
15 139.999893 0.000060 -0.000060 -5.871322 -5.872224 -0.733258 139.999893
[Rope2_Seg09]
14 121.338966 0.000089 -0.000060 33.793236 -1.359788 -0.847141 121.338966
15 121.338966 0.000089 -0.000060 33.793236 -1.359788 -0.847141 121.338966
[R_mid_hand01]
14 104.680779 11.144459 -10.335981 -47.384243 2.963521 5.452602 105.778534
15 104.680779 11.144459 -10.335981 -47.384266 2.963523 5.452605 105.778534
[R_mid_hand02]
14 104.070427 2.443552 8.231699 75.626297 -2.250001 1.111093 104.424065
15 104.070427 2.443552 8.231699 75.626297 -2.250002 1.111093 104.424065
[R_mid_hand03]
14 106.028137 -11.221827 -5.996406 -164.381912 2.495983 -6.140520 106.788818
15 106.028137 -11.221827 -5.996406 -164.381912 2.495983 -6.140520 106.788818
[spine02]
14 129.756927 0.001550 0.000119 -1.424507 -3.843663 12.485570 129.756927
15 129.756927 0.001550 0.000119 -1.355519 -3.859709 11.458406 129.756927
[spine03]
14 78.998360 0.020426 -1.146211 -0.628249 4.709642 -16.659891 79.006676
15 78.984352 0.022881 -1.283116 -0.666611 4.649122 -17.196228 78.994774
[pelvis]
14 169.435242 0.051022 0.000000 -5.599615 -2.516747 10.609582 169.435257
15 169.435242 0.051022 0.000000 -5.366193 -2.446550 10.102780 169.435257
[null_rope03_connect]
14 -1.257226 -2.466202 137.391083 159.571869 -83.704239 -59.948776 137.418976
15 -1.257226 -2.466202 137.391083 152.700989 -83.993843 -52.420105 137.418976
[null_rope04_connect]
14 -1.259640 -2.480268 -137.844437 159.571869 -83.704239 -59.948776 137.872513
15 -1.259640 -2.480268 -137.844437 152.700989 -83.993843 -52.420105 137.872513
[Rope3_Seg01]
14 -0.000044 0.000058 -0.000006 -129.726242 -42.595509 -85.437271 0.000073
15 -0.000044 0.000053 -0.000006 -130.160065 -45.700191 -85.243347 0.000069
[Rope3_Seg02]
14 139.999924 -0.000119 0.000060 -1.821983 7.169054 -8.783822 139.999924
15 139.999924 -0.000119 0.000060 -1.418723 5.297313 -7.104253 139.999924
[Rope3_Seg03]
14 139.999924 -0.000119 0.000119 -5.382727 12.682495 -15.117097 139.999924
15 139.999924 -0.000119 0.000119 -3.639094 8.796619 -11.452317 139.999924
[Rope3_Seg04]
14 139.999924 0.000119 0.000000 -9.347327 18.285358 -17.159027 139.999924
15 139.999924 0.000119 0.000000 -8.285267 14.591718 -16.473911 139.999924
[Rope3_Seg05]
14 139.999924 -0.000238 0.000060 -8.609604 16.320251 -14.839481 139.999924
15 139.999924 -0.000238 0.000060 -9.744015 16.091688 -15.409185 139.999924
[Rope3_Seg06]
14 139.999893 -0.000119 -0.000060 -11.649389 18.982828 -18.428221 139.999893
15 139.999893 -0.000119 -0.000060 -9.256555 14.746503 -14.053204 139.999893
[Rope3_Seg07]
14 139.999771 0.000060 -0.000119 -7.144595 14.925748 -10.240941 139.999771
15 139.999771 0.000060 -0.000119 -7.351694 13.136627 -10.079633 139.999771
[Rope3_Seg08]
14 139.999985 -0.000060 0.000000 -2.284674 7.239471 -3.613014 139.999985
15 139.999985 -0.000060 0.000000 -3.120145 7.646669 -4.179492 139.999985
[Rope3_Seg09]
14 90.185997 -0.000179 -0.000060 89.793228 -1.359877 -0.847183 90.185997
15 90.185997 -0.000179 -0.000060 89.793228 -1.359877 -0.847183 90.185997
[R_rear_hand01]
14 103.366196 -6.073594 -10.757982 -156.049316 6.070419 -2.795869 104.101845
15 103.366196 -6.073594 -10.757982 -156.049316 6.070419 -2.795869 104.101845
[R_rear_hand02]
14 100.509819 12.039542 -7.992327 -38.708424 1.958050 5.461185 101.543350
15 100.509819 12.039542 -7.992327 -38.708439 1.958052 5.461187 101.543350
[R_rear_hand03]
14 101.539970 5.215704 5.435467 84.307625 -2.361032 4.099037 101.819031
15 101.539970 5.215704 5.435467 84.307632 -2.361033 4.099039 101.819031
[Rope4_Seg01]
14 -0.000011 0.000005 -0.000105 32.624435 -34.493629 -73.637451 0.000105
15 -0.000011 -0.000000 -0.000107 31.501085 -40.950119 -73.599907 0.000107
[Rope4_Seg02]
14 139.999985 0.000060 0.000119 -2.629344 -21.533541 7.248274 139.999985
15 139.999985 0.000060 0.000119 -1.119979 -14.554148 3.859959 139.999985
[Rope4_Seg03]
14 139.999924 0.000000 -0.000238 8.177453 -46.497334 13.728548 139.999924
15 139.999924 0.000000 -0.000238 4.586125 -36.633129 9.049582 139.999924
[Rope4_Seg04]
14 139.999985 0.000000 0.000119 20.156681 -23.325249 11.155871 139.999985
15 139.999985 0.000000 0.000119 24.220375 -35.642769 9.911967 139.999985
[Rope4_Seg05]
14 139.999802 -0.000060 -0.000119 19.689779 -6.096444 19.689718 139.999802
15 139.999802 -0.000060 -0.000119 22.431690 -8.480895 18.172293 139.999802
[Rope4_Seg06]
14 139.999924 0.000000 0.000060 14.589805 4.961689 27.518154 139.999924
15 139.999924 0.000000 0.000060 15.016278 5.748033 24.381599 139.999924
[Rope4_Seg07]
14 139.999802 0.000000 0.000000 3.622662 4.697323 12.919030 139.999802
15 139.999802 0.000000 0.000000 4.796127 5.995080 13.831655 139.999802
[Rope4_Seg08]
14 139.999924 0.000000 0.000119 -0.561366 2.413149 5.953480 139.999924
15 139.999924 0.000000 0.000119 -0.201693 2.895689 6.257994 139.999924
[Rope4_Seg09]
14 90.185791 0.000060 0.000060 -135.617828 2.228885 0.850567 90.185791
15 90.185791 0.000060 0.000060 -135.617828 2.228885 0.850567 90.185791
[L_rear_hand01]
14 101.696655 -8.392275 -7.654577 -38.746338 0.246096 177.290207 102.329041
15 101.696655 -8.392275 -7.654577 -38.746349 0.246096 177.290207 102.329041
[L_rear_hand02]
14 102.726799 -1.568258 5.773216 84.315140 -1.142796 176.247437 102.900848
15 102.726799 -1.568258 5.773216 84.315163 -1.142796 176.247437 102.900848
[L_rear_hand03]
14 104.552910 9.721220 -10.420293 -155.747955 -4.630845 179.564758 105.519653
15 104.552910 9.721220 -10.420293 -155.747955 -4.630845 179.564758 105.519653
